<svg xmlns="http://www.w3.org/2000/svg" width="1440" height="29464" viewBox="0 0 1440 29464">
<rect width="100%" height="100%" fill="#f3f0e8"/>
<rect x="0" y="0" width="1440" height="6424" fill="#fbfaf7" stroke="#d4c8b4" stroke-width="2"/>
<text x="36" y="44" font-size="28" fill="#7a5a20" font-family="PingFang SC, Heiti SC, sans-serif"><tspan x="36" dy="0">SCROLL_001</tspan></text>
<rect x="72" y="28" width="1296" height="1120" rx="8" fill="#eee7dc" stroke="#1f1f1f" stroke-width="4"/>
<text x="100" y="76" font-size="30" fill="#111111" font-family="PingFang SC, Heiti SC, sans-serif"><tspan x="100" dy="0">P001  opening_hook</tspan></text>
<text x="100" y="126" font-size="26" fill="#333333" font-family="PingFang SC, Heiti SC, sans-serif"><tspan x="100" dy="0">极长竖向开场：冷灰荒野与血色余晖，枯草间尸骸横陈，风卷起墨色尘沙。</tspan></text>
<text x="100" y="988" font-size="24" fill="#5b2b20" font-family="PingFang SC, Heiti SC, sans-serif"><tspan x="100" dy="0">旁白：风里带着腥气。 | SFX：呼——</tspan></text>
<rect x="120" y="76" width="430" height="88" rx="28" fill="none" stroke="#3d72b4" stroke-width="3" stroke-dasharray="10 8"/>
<text x="136" y="110" font-size="20" fill="#3d72b4" font-family="PingFang SC, Heiti SC, sans-serif"><tspan x="136" dy="0">B001N1</tspan><tspan x="136" dy="27">narration</tspan></text>
<rect x="540" y="950" width="360" height="150" rx="28" fill="none" stroke="#b4433d" stroke-width="3" stroke-dasharray="10 8"/>
<text x="556" y="984" font-size="20" fill="#b4433d" font-family="PingFang SC, Heiti SC, sans-serif"><tspan x="556" dy="0">B001S2</tspan><tspan x="556" dy="27">sfx</tspan></text>
<rect x="72" y="1204" width="1296" height="1040" rx="8" fill="#e5e0d8" stroke="#1f1f1f" stroke-width="4"/>
<text x="100" y="1252" font-size="30" fill="#111111" font-family="PingFang SC, Heiti SC, sans-serif"><tspan x="100" dy="0">P002  protagonist_reveal</tspan></text>
<text x="100" y="1302" font-size="26" fill="#333333" font-family="PingFang SC, Heiti SC, sans-serif"><tspan x="100" dy="0">姜月初从尸骸间撑起身，高马尾和破损灰白囚服被风吹动，她难以置信地看着自己的女性双手。</tspan></text>
<text x="100" y="2084" font-size="24" fill="#5b2b20" font-family="PingFang SC, Heiti SC, sans-serif"><tspan x="100" dy="0">旁白：大唐。妖魔横行。而我……穿成了一个被发配的女人？</tspan></text>
<rect x="120" y="1252" width="430" height="122" rx="28" fill="none" stroke="#3d72b4" stroke-width="3" stroke-dasharray="10 8"/>
<text x="136" y="1286" font-size="20" fill="#3d72b4" font-family="PingFang SC, Heiti SC, sans-serif"><tspan x="136" dy="0">B002N1</tspan><tspan x="136" dy="27">narration</tspan></text>
<rect x="126" y="2272" width="1188" height="1040" rx="8" fill="#eee7dc" stroke="#1f1f1f" stroke-width="4"/>
<text x="154" y="2320" font-size="30" fill="#111111" font-family="PingFang SC, Heiti SC, sans-serif"><tspan x="154" dy="0">P003  world_reveal</tspan></text>
<text x="154" y="2370" font-size="26" fill="#333333" font-family="PingFang SC, Heiti SC, sans-serif"><tspan x="154" dy="0">主角视角扫过囚服尸体和黑衣赤云纹的镇魔卫尸体，两种服装形成清楚对比。</tspan></text>
<text x="154" y="3152" font-size="24" fill="#5b2b20" font-family="PingFang SC, Heiti SC, sans-serif"><tspan x="154" dy="0">旁白：这里到底发生了什么？</tspan></text>
<rect x="174" y="2320" width="430" height="88" rx="28" fill="none" stroke="#3d72b4" stroke-width="3" stroke-dasharray="10 8"/>
<text x="190" y="2354" font-size="20" fill="#3d72b4" font-family="PingFang SC, Heiti SC, sans-serif"><tspan x="190" dy="0">B003N1</tspan><tspan x="190" dy="27">narration</tspan></text>
<rect x="72" y="3340" width="1296" height="1040" rx="8" fill="#e5e0d8" stroke="#1f1f1f" stroke-width="4"/>
<text x="100" y="3388" font-size="30" fill="#111111" font-family="PingFang SC, Heiti SC, sans-serif"><tspan x="100" dy="0">P004  monster_reveal</tspan></text>
<text x="100" y="3438" font-size="26" fill="#333333" font-family="PingFang SC, Heiti SC, sans-serif"><tspan x="100" dy="0">巨岩下，虎山神人身虎头的巨躯斜倚着，胸口巨大窟窿涌出黑血；姜月初在远处显得渺小。</tspan></text>
<text x="100" y="4220" font-size="24" fill="#5b2b20" font-family="PingFang SC, Heiti SC, sans-serif"><tspan x="100" dy="0">旁白：是妖魔……还好，已经死了。</tspan></text>
<rect x="120" y="3388" width="430" height="88" rx="28" fill="none" stroke="#3d72b4" stroke-width="3" stroke-dasharray="10 8"/>
<text x="136" y="3422" font-size="20" fill="#3d72b4" font-family="PingFang SC, Heiti SC, sans-serif"><tspan x="136" dy="0">B004N1</tspan><tspan x="136" dy="27">narration</tspan></text>
<rect x="126" y="4408" width="1188" height="1040" rx="8" fill="#eee7dc" stroke="#1f1f1f" stroke-width="4"/>
<text x="154" y="4456" font-size="30" fill="#111111" font-family="PingFang SC, Heiti SC, sans-serif"><tspan x="154" dy="0">P005  supporting_reveal</tspan></text>
<text x="154" y="4506" font-size="26" fill="#333333" font-family="PingFang SC, Heiti SC, sans-serif"><tspan x="154" dy="0">镜头从虎妖黑血滑向半跪的裴长青；他用断刀撑地，黑衣赤纹、左臂扭曲、胸口微弱起伏。</tspan></text>
<text x="154" y="5288" font-size="24" fill="#5b2b20" font-family="PingFang SC, Heiti SC, sans-serif"><tspan x="154" dy="0">旁白：除了我，只剩他还活着。</tspan></text>
<rect x="174" y="4456" width="430" height="88" rx="28" fill="none" stroke="#3d72b4" stroke-width="3" stroke-dasharray="10 8"/>
<text x="190" y="4490" font-size="20" fill="#3d72b4" font-family="PingFang SC, Heiti SC, sans-serif"><tspan x="190" dy="0">B005N1</tspan><tspan x="190" dy="27">narration</tspan></text>
<rect x="126" y="5476" width="1188" height="920" rx="8" fill="#e5e0d8" stroke="#1f1f1f" stroke-width="4"/>
<text x="154" y="5524" font-size="30" fill="#111111" font-family="PingFang SC, Heiti SC, sans-serif"><tspan x="154" dy="0">P006  threat_dialogue</tspan></text>
<text x="154" y="5574" font-size="26" fill="#333333" font-family="PingFang SC, Heiti SC, sans-serif"><tspan x="154" dy="0">姜月初踮起脚尖后退；裴长青艰难抬头，干裂的嘴唇吐出命令。</tspan></text>
<text x="154" y="6236" font-size="24" fill="#5b2b20" font-family="PingFang SC, Heiti SC, sans-serif"><tspan x="154" dy="0">旁白：你说过去就过去？ |</tspan><tspan x="154" dy="32">CHAR_PEI_CHANGQING：过来。</tspan></text>
<rect x="174" y="5524" width="430" height="88" rx="28" fill="none" stroke="#3d72b4" stroke-width="3" stroke-dasharray="10 8"/>
<text x="190" y="5558" font-size="20" fill="#3d72b4" font-family="PingFang SC, Heiti SC, sans-serif"><tspan x="190" dy="0">B006N1</tspan><tspan x="190" dy="27">narration</tspan></text>
<rect x="652" y="5524" width="430" height="88" rx="28" fill="none" stroke="#3d72b4" stroke-width="3" stroke-dasharray="10 8"/>
<text x="668" y="5558" font-size="20" fill="#3d72b4" font-family="PingFang SC, Heiti SC, sans-serif"><tspan x="668" dy="0">B006D2</tspan><tspan x="668" dy="27">dialogue</tspan></text>
<rect x="0" y="6504" width="1440" height="5728" fill="#fbfaf7" stroke="#d4c8b4" stroke-width="2"/>
<text x="36" y="6548" font-size="28" fill="#7a5a20" font-family="PingFang SC, Heiti SC, sans-serif"><tspan x="36" dy="0">SCROLL_002</tspan></text>
<rect x="180" y="6532" width="1080" height="700" rx="8" fill="#eee7dc" stroke="#1f1f1f" stroke-width="4"/>
<text x="208" y="6580" font-size="30" fill="#111111" font-family="PingFang SC, Heiti SC, sans-serif"><tspan x="208" dy="0">P007  memory_context</tspan></text>
<text x="208" y="6630" font-size="26" fill="#333333" font-family="PingFang SC, Heiti SC, sans-serif"><tspan x="208" dy="0">破碎记忆以墨色剪影小格叠入：高官府门封条、女子戴枷、赤纹缇骑押送囚车。</tspan></text>
<text x="208" y="7072" font-size="24" fill="#5b2b20" font-family="PingFang SC, Heiti SC, sans-serif"><tspan x="208" dy="0">旁白：罪官之女，没入贱籍。而他是镇魔司的人。</tspan></text>
<rect x="218" y="6570" width="430" height="88" rx="28" fill="none" stroke="#3d72b4" stroke-width="3" stroke-dasharray="10 8"/>
<text x="234" y="6604" font-size="20" fill="#3d72b4" font-family="PingFang SC, Heiti SC, sans-serif"><tspan x="234" dy="0">B007N1</tspan><tspan x="234" dy="27">narration</tspan></text>
<rect x="72" y="7260" width="1296" height="1120" rx="8" fill="#e5e0d8" stroke="#1f1f1f" stroke-width="4"/>
<text x="100" y="7308" font-size="30" fill="#111111" font-family="PingFang SC, Heiti SC, sans-serif"><tspan x="100" dy="0">P008  escape_decision</tspan></text>
<text x="100" y="7358" font-size="26" fill="#333333" font-family="PingFang SC, Heiti SC, sans-serif"><tspan x="100" dy="0">姜月初转身要跑，一道冷光从她耳侧擦过，半截断刀铃在脚前泥地。</tspan></text>
<text x="100" y="8220" font-size="24" fill="#5b2b20" font-family="PingFang SC, Heiti SC, sans-serif"><tspan x="100" dy="0">旁白：趁他快死了，跑。 | SFX：咻！ / 笃！</tspan></text>
<rect x="120" y="7308" width="430" height="88" rx="28" fill="none" stroke="#3d72b4" stroke-width="3" stroke-dasharray="10 8"/>
<text x="136" y="7342" font-size="20" fill="#3d72b4" font-family="PingFang SC, Heiti SC, sans-serif"><tspan x="136" dy="0">B008N1</tspan><tspan x="136" dy="27">narration</tspan></text>
<rect x="540" y="8182" width="360" height="150" rx="28" fill="none" stroke="#b4433d" stroke-width="3" stroke-dasharray="10 8"/>
<text x="556" y="8216" font-size="20" fill="#b4433d" font-family="PingFang SC, Heiti SC, sans-serif"><tspan x="556" dy="0">B008S2</tspan><tspan x="556" dy="27">sfx</tspan></text>
<rect x="540" y="8024" width="360" height="150" rx="28" fill="none" stroke="#b4433d" stroke-width="3" stroke-dasharray="10 8"/>
<text x="556" y="8058" font-size="20" fill="#b4433d" font-family="PingFang SC, Heiti SC, sans-serif"><tspan x="556" dy="0">B008S3</tspan><tspan x="556" dy="27">sfx</tspan></text>
<rect x="126" y="8408" width="1188" height="920" rx="8" fill="#eee7dc" stroke="#1f1f1f" stroke-width="4"/>
<text x="154" y="8456" font-size="30" fill="#111111" font-family="PingFang SC, Heiti SC, sans-serif"><tspan x="154" dy="0">P009  reaction</tspan></text>
<text x="154" y="8506" font-size="26" fill="#333333" font-family="PingFang SC, Heiti SC, sans-serif"><tspan x="154" dy="0">断刀贴着姜月初脚尖震颤，她僵住，额角冷汗滑下，只能慢慢转回身。</tspan></text>
<text x="154" y="9168" font-size="24" fill="#5b2b20" font-family="PingFang SC, Heiti SC, sans-serif"><tspan x="154" dy="0">旁白：好猛的将死之人……罢了，过来就过来。</tspan></text>
<rect x="174" y="8456" width="430" height="88" rx="28" fill="none" stroke="#3d72b4" stroke-width="3" stroke-dasharray="10 8"/>
<text x="190" y="8490" font-size="20" fill="#3d72b4" font-family="PingFang SC, Heiti SC, sans-serif"><tspan x="190" dy="0">B009N1</tspan><tspan x="190" dy="27">narration</tspan></text>
<rect x="180" y="9356" width="1080" height="960" rx="8" fill="#e5e0d8" stroke="#1f1f1f" stroke-width="4"/>
<text x="208" y="9404" font-size="30" fill="#111111" font-family="PingFang SC, Heiti SC, sans-serif"><tspan x="208" dy="0">P010  bluff_reveal</tspan></text>
<text x="208" y="9454" font-size="26" fill="#333333" font-family="PingFang SC, Heiti SC, sans-serif"><tspan x="208" dy="0">裴长青嘴角极轻地动了一下，但藏在袖下的手已无力垂落；姜月初并未看见。</tspan></text>

<rect x="126" y="10344" width="1188" height="840" rx="8" fill="#eee7dc" stroke="#1f1f1f" stroke-width="4"/>
<text x="154" y="10392" font-size="30" fill="#111111" font-family="PingFang SC, Heiti SC, sans-serif"><tspan x="154" dy="0">P011  bargain</tspan></text>
<text x="154" y="10442" font-size="26" fill="#333333" font-family="PingFang SC, Heiti SC, sans-serif"><tspan x="154" dy="0">裴长青半跪在地，仰视走近的姜月初，主动报出身份。</tspan></text>
<text x="154" y="11024" font-size="24" fill="#5b2b20" font-family="PingFang SC, Heiti SC, sans-serif"><tspan x="154" dy="0">CHAR_PEI_CHANGQING：扶我起来。在下裴长青，陇右镇魔都司队正。</tspan></text>
<rect x="172" y="10390" width="430" height="88" rx="28" fill="none" stroke="#3d72b4" stroke-width="3" stroke-dasharray="10 8"/>
<text x="188" y="10424" font-size="20" fill="#3d72b4" font-family="PingFang SC, Heiti SC, sans-serif"><tspan x="188" dy="0">B011D1</tspan><tspan x="188" dy="27">dialogue</tspan></text>
<rect x="126" y="11212" width="1188" height="992" rx="8" fill="#e5e0d8" stroke="#1f1f1f" stroke-width="4"/>
<text x="154" y="11260" font-size="30" fill="#111111" font-family="PingFang SC, Heiti SC, sans-serif"><tspan x="154" dy="0">P012  bargain_pressure</tspan></text>
<text x="154" y="11310" font-size="26" fill="#333333" font-family="PingFang SC, Heiti SC, sans-serif"><tspan x="154" dy="0">裴长青的视线锁住姜月初，背后是没入荒草的死人和无路可逃的远方。</tspan></text>
<text x="154" y="12044" font-size="24" fill="#5b2b20" font-family="PingFang SC, Heiti SC, sans-serif"><tspan x="154" dy="0">旁白：画大饼画到我头上了。 |</tspan><tspan x="154" dy="32">CHAR_PEI_CHANGQING：没有户籍路引，你逃到下一座城又能如何？按我说的做，我保你自由。</tspan></text>
<rect x="174" y="11260" width="430" height="88" rx="28" fill="none" stroke="#3d72b4" stroke-width="3" stroke-dasharray="10 8"/>
<text x="190" y="11294" font-size="20" fill="#3d72b4" font-family="PingFang SC, Heiti SC, sans-serif"><tspan x="190" dy="0">B012N1</tspan><tspan x="190" dy="27">narration</tspan></text>
<rect x="652" y="11260" width="430" height="156" rx="28" fill="none" stroke="#3d72b4" stroke-width="3" stroke-dasharray="10 8"/>
<text x="668" y="11294" font-size="20" fill="#3d72b4" font-family="PingFang SC, Heiti SC, sans-serif"><tspan x="668" dy="0">B012D2</tspan><tspan x="668" dy="27">dialogue</tspan></text>
<rect x="0" y="12312" width="1440" height="6512" fill="#fbfaf7" stroke="#d4c8b4" stroke-width="2"/>
<text x="36" y="12356" font-size="28" fill="#7a5a20" font-family="PingFang SC, Heiti SC, sans-serif"><tspan x="36" dy="0">SCROLL_003</tspan></text>
<rect x="126" y="12340" width="1188" height="920" rx="8" fill="#eee7dc" stroke="#1f1f1f" stroke-width="4"/>
<text x="154" y="12388" font-size="30" fill="#111111" font-family="PingFang SC, Heiti SC, sans-serif"><tspan x="154" dy="0">P013  reluctant_choice</tspan></text>
<text x="154" y="12438" font-size="26" fill="#333333" font-family="PingFang SC, Heiti SC, sans-serif"><tspan x="154" dy="0">姜月初看了看断刀、荒野和自己纤细的手，最终咬牙蹲下。</tspan></text>
<text x="154" y="13100" font-size="24" fill="#5b2b20" font-family="PingFang SC, Heiti SC, sans-serif"><tspan x="154" dy="0">旁白：他说得没错。一个没有身份的弱女子，根本活不出这片荒野。 |</tspan><tspan x="154" dy="32">CHAR_JIANG_YUECHU：……好。</tspan></text>
<rect x="174" y="12388" width="430" height="122" rx="28" fill="none" stroke="#3d72b4" stroke-width="3" stroke-dasharray="10 8"/>
<text x="190" y="12422" font-size="20" fill="#3d72b4" font-family="PingFang SC, Heiti SC, sans-serif"><tspan x="190" dy="0">B013N1</tspan><tspan x="190" dy="27">narration</tspan></text>
<rect x="652" y="12388" width="430" height="88" rx="28" fill="none" stroke="#3d72b4" stroke-width="3" stroke-dasharray="10 8"/>
<text x="668" y="12422" font-size="20" fill="#3d72b4" font-family="PingFang SC, Heiti SC, sans-serif"><tspan x="668" dy="0">B013D2</tspan><tspan x="668" dy="27">dialogue</tspan></text>
<rect x="126" y="13288" width="1188" height="1120" rx="8" fill="#e5e0d8" stroke="#1f1f1f" stroke-width="4"/>
<text x="154" y="13336" font-size="30" fill="#111111" font-family="PingFang SC, Heiti SC, sans-serif"><tspan x="154" dy="0">P014  physical_struggle</tspan></text>
<text x="154" y="13386" font-size="26" fill="#333333" font-family="PingFang SC, Heiti SC, sans-serif"><tspan x="154" dy="0">姜月初绕到裴长青右侧，把他滚烫沉重的身体架在肩上，两人踉跄向南，脚下拖出血痕。</tspan></text>
<text x="154" y="14248" font-size="24" fill="#5b2b20" font-family="PingFang SC, Heiti SC, sans-serif"><tspan x="154" dy="0">旁白：好沉！ | CHAR_JIANG_YUECHU：往……哪走？</tspan><tspan x="154" dy="32">| CHAR_PEI_CHANGQING：往南。 | SFX：沙、沙</tspan></text>
<rect x="174" y="13336" width="430" height="88" rx="28" fill="none" stroke="#3d72b4" stroke-width="3" stroke-dasharray="10 8"/>
<text x="190" y="13370" font-size="20" fill="#3d72b4" font-family="PingFang SC, Heiti SC, sans-serif"><tspan x="190" dy="0">B014N1</tspan><tspan x="190" dy="27">narration</tspan></text>
<rect x="652" y="13336" width="430" height="88" rx="28" fill="none" stroke="#3d72b4" stroke-width="3" stroke-dasharray="10 8"/>
<text x="668" y="13370" font-size="20" fill="#3d72b4" font-family="PingFang SC, Heiti SC, sans-serif"><tspan x="668" dy="0">B014D2</tspan><tspan x="668" dy="27">dialogue</tspan></text>
<rect x="174" y="13540" width="430" height="88" rx="28" fill="none" stroke="#3d72b4" stroke-width="3" stroke-dasharray="10 8"/>
<text x="190" y="13574" font-size="20" fill="#3d72b4" font-family="PingFang SC, Heiti SC, sans-serif"><tspan x="190" dy="0">B014D3</tspan><tspan x="190" dy="27">dialogue</tspan></text>
<rect x="540" y="14210" width="360" height="150" rx="28" fill="none" stroke="#b4433d" stroke-width="3" stroke-dasharray="10 8"/>
<text x="556" y="14244" font-size="20" fill="#b4433d" font-family="PingFang SC, Heiti SC, sans-serif"><tspan x="556" dy="0">B014S4</tspan><tspan x="556" dy="27">sfx</tspan></text>
<rect x="72" y="14436" width="1296" height="1120" rx="8" fill="#eee7dc" stroke="#1f1f1f" stroke-width="4"/>
<text x="100" y="14484" font-size="30" fill="#111111" font-family="PingFang SC, Heiti SC, sans-serif"><tspan x="100" dy="0">P015  ominous_return</tspan></text>
<text x="100" y="14534" font-size="26" fill="#333333" font-family="PingFang SC, Heiti SC, sans-serif"><tspan x="100" dy="0">两人刚走几步，身后传来咳嗽；姜月初手一松，裴长青直挺挺摔回泥地。</tspan></text>
<text x="100" y="15396" font-size="24" fill="#5b2b20" font-family="PingFang SC, Heiti SC, sans-serif"><tspan x="100" dy="0">旁白：人死不能复生……可没人说过，妖也一样。 |</tspan><tspan x="100" dy="32">MON_TIGER_SHANSHEN：别跑了。荒郊野岭的，你们要跑哪去？</tspan><tspan x="100" dy="32">| SFX：咳、咳咳 / 咚！</tspan></text>
<rect x="120" y="14484" width="430" height="88" rx="28" fill="none" stroke="#3d72b4" stroke-width="3" stroke-dasharray="10 8"/>
<text x="136" y="14518" font-size="20" fill="#3d72b4" font-family="PingFang SC, Heiti SC, sans-serif"><tspan x="136" dy="0">B015N1</tspan><tspan x="136" dy="27">narration</tspan></text>
<rect x="598" y="14484" width="430" height="88" rx="28" fill="none" stroke="#3d72b4" stroke-width="3" stroke-dasharray="10 8"/>
<text x="614" y="14518" font-size="20" fill="#3d72b4" font-family="PingFang SC, Heiti SC, sans-serif"><tspan x="614" dy="0">B015D2</tspan><tspan x="614" dy="27">dialogue</tspan></text>
<rect x="540" y="15358" width="360" height="150" rx="28" fill="none" stroke="#b4433d" stroke-width="3" stroke-dasharray="10 8"/>
<text x="556" y="15392" font-size="20" fill="#b4433d" font-family="PingFang SC, Heiti SC, sans-serif"><tspan x="556" dy="0">B015S3</tspan><tspan x="556" dy="27">sfx</tspan></text>
<rect x="540" y="15200" width="360" height="150" rx="28" fill="none" stroke="#b4433d" stroke-width="3" stroke-dasharray="10 8"/>
<text x="556" y="15234" font-size="20" fill="#b4433d" font-family="PingFang SC, Heiti SC, sans-serif"><tspan x="556" dy="0">B015S4</tspan><tspan x="556" dy="27">sfx</tspan></text>
<rect x="72" y="15584" width="1296" height="1076" rx="8" fill="#e5e0d8" stroke="#1f1f1f" stroke-width="4"/>
<text x="100" y="15632" font-size="30" fill="#111111" font-family="PingFang SC, Heiti SC, sans-serif"><tspan x="100" dy="0">P016  resurrection_reveal</tspan></text>
<text x="100" y="15682" font-size="26" fill="#333333" font-family="PingFang SC, Heiti SC, sans-serif"><tspan x="100" dy="0">虎山神从巨岩下缓缓站起，胸口巨大窟窿仍然流黑血，它扭动脆子露出笑；二人在前景完全僵住。</tspan></text>
<text x="100" y="16500" font-size="24" fill="#5b2b20" font-family="PingFang SC, Heiti SC, sans-serif"><tspan x="100" dy="0">MON_TIGER_SHANSHEN：很意外么？凭几个不入流的镇魔卫，也想杀我？</tspan><tspan x="100" dy="32">| SFX：咔、咔</tspan></text>
<rect x="120" y="15632" width="430" height="122" rx="28" fill="none" stroke="#3d72b4" stroke-width="3" stroke-dasharray="10 8"/>
<text x="136" y="15666" font-size="20" fill="#3d72b4" font-family="PingFang SC, Heiti SC, sans-serif"><tspan x="136" dy="0">B016D1</tspan><tspan x="136" dy="27">dialogue</tspan></text>
<rect x="540" y="16462" width="360" height="150" rx="28" fill="none" stroke="#b4433d" stroke-width="3" stroke-dasharray="10 8"/>
<text x="556" y="16496" font-size="20" fill="#b4433d" font-family="PingFang SC, Heiti SC, sans-serif"><tspan x="556" dy="0">B016S2</tspan><tspan x="556" dy="27">sfx</tspan></text>
<rect x="126" y="16688" width="1188" height="1040" rx="8" fill="#eee7dc" stroke="#1f1f1f" stroke-width="4"/>
<text x="154" y="16736" font-size="30" fill="#111111" font-family="PingFang SC, Heiti SC, sans-serif"><tspan x="154" dy="0">P017  power_explanation</tspan></text>
<text x="154" y="16786" font-size="26" fill="#333333" font-family="PingFang SC, Heiti SC, sans-serif"><tspan x="154" dy="0">裴长青瞳孔紧缩，他的记忆剪影闪过刀锋贯穿虎妖心脏，再与当下不死之躯重叠。</tspan></text>
<text x="154" y="17568" font-size="24" fill="#5b2b20" font-family="PingFang SC, Heiti SC, sans-serif"><tspan x="154" dy="0">旁白：鸣骨境……天赋神通！心脏被贯穿也能复生！</tspan></text>
<rect x="174" y="16736" width="430" height="88" rx="28" fill="none" stroke="#3d72b4" stroke-width="3" stroke-dasharray="10 8"/>
<text x="190" y="16770" font-size="20" fill="#3d72b4" font-family="PingFang SC, Heiti SC, sans-serif"><tspan x="190" dy="0">B017N1</tspan><tspan x="190" dy="27">narration</tspan></text>
<rect x="72" y="17756" width="1296" height="1040" rx="8" fill="#e5e0d8" stroke="#1f1f1f" stroke-width="4"/>
<text x="100" y="17804" font-size="30" fill="#111111" font-family="PingFang SC, Heiti SC, sans-serif"><tspan x="100" dy="0">P018  desperate_attack</tspan></text>
<text x="100" y="17854" font-size="26" fill="#333333" font-family="PingFang SC, Heiti SC, sans-serif"><tspan x="100" dy="0">裴长青从地上抓起同僚横刀，强行爆发最后气血，拖着扭曲左臂跃起斩向虎妖脖颈。</tspan></text>
<text x="100" y="18636" font-size="24" fill="#5b2b20" font-family="PingFang SC, Heiti SC, sans-serif"><tspan x="100" dy="0">CHAR_PEI_CHANGQING：死！ | SFX：轰！</tspan></text>
<rect x="120" y="17804" width="430" height="88" rx="28" fill="none" stroke="#3d72b4" stroke-width="3" stroke-dasharray="10 8"/>
<text x="136" y="17838" font-size="20" fill="#3d72b4" font-family="PingFang SC, Heiti SC, sans-serif"><tspan x="136" dy="0">B018D1</tspan><tspan x="136" dy="27">dialogue</tspan></text>
<rect x="540" y="18598" width="360" height="150" rx="28" fill="none" stroke="#b4433d" stroke-width="3" stroke-dasharray="10 8"/>
<text x="556" y="18632" font-size="20" fill="#b4433d" font-family="PingFang SC, Heiti SC, sans-serif"><tspan x="556" dy="0">B018S2</tspan><tspan x="556" dy="27">sfx</tspan></text>
<rect x="0" y="18904" width="1440" height="6076" fill="#fbfaf7" stroke="#d4c8b4" stroke-width="2"/>
<text x="36" y="18948" font-size="28" fill="#7a5a20" font-family="PingFang SC, Heiti SC, sans-serif"><tspan x="36" dy="0">SCROLL_004</tspan></text>
<rect x="72" y="18932" width="1296" height="1040" rx="8" fill="#eee7dc" stroke="#1f1f1f" stroke-width="4"/>
<text x="100" y="18980" font-size="30" fill="#111111" font-family="PingFang SC, Heiti SC, sans-serif"><tspan x="100" dy="0">P019  action_peak</tspan></text>
<text x="100" y="19030" font-size="26" fill="#333333" font-family="PingFang SC, Heiti SC, sans-serif"><tspan x="100" dy="0">虎妖不闪不避，后发先至一脚蹬在裴长青胸口；他横向倒飞，横刀脱手落到姜月初脚边。</tspan></text>
<text x="100" y="19812" font-size="24" fill="#5b2b20" font-family="PingFang SC, Heiti SC, sans-serif"><tspan x="100" dy="0">SFX：砰！</tspan></text>
<rect x="540" y="19774" width="360" height="150" rx="28" fill="none" stroke="#b4433d" stroke-width="3" stroke-dasharray="10 8"/>
<text x="556" y="19808" font-size="20" fill="#b4433d" font-family="PingFang SC, Heiti SC, sans-serif"><tspan x="556" dy="0">B019S1</tspan><tspan x="556" dy="27">sfx</tspan></text>
<rect x="72" y="20000" width="1296" height="1040" rx="8" fill="#e5e0d8" stroke="#1f1f1f" stroke-width="4"/>
<text x="100" y="20048" font-size="30" fill="#111111" font-family="PingFang SC, Heiti SC, sans-serif"><tspan x="100" dy="0">P020  despair</tspan></text>
<text x="100" y="20098" font-size="26" fill="#333333" font-family="PingFang SC, Heiti SC, sans-serif"><tspan x="100" dy="0">俯视姜月初、濒死裴长青与脚边横刀；虎妖高大阴影从画右覆压过来，它舔着带倒刺的手掌。</tspan></text>
<text x="100" y="20880" font-size="24" fill="#5b2b20" font-family="PingFang SC, Heiti SC, sans-serif"><tspan x="100" dy="0">旁白：刚穿越几分钟，就要死在这里？ |</tspan><tspan x="100" dy="32">MON_TIGER_SHANSHEN：人身多苦厄，早些解脱岂不美哉？</tspan></text>
<rect x="120" y="20048" width="430" height="88" rx="28" fill="none" stroke="#3d72b4" stroke-width="3" stroke-dasharray="10 8"/>
<text x="136" y="20082" font-size="20" fill="#3d72b4" font-family="PingFang SC, Heiti SC, sans-serif"><tspan x="136" dy="0">B020N1</tspan><tspan x="136" dy="27">narration</tspan></text>
<rect x="598" y="20048" width="430" height="88" rx="28" fill="none" stroke="#3d72b4" stroke-width="3" stroke-dasharray="10 8"/>
<text x="614" y="20082" font-size="20" fill="#3d72b4" font-family="PingFang SC, Heiti SC, sans-serif"><tspan x="614" dy="0">B020D2</tspan><tspan x="614" dy="27">dialogue</tspan></text>
<rect x="72" y="21068" width="1296" height="1040" rx="8" fill="#eee7dc" stroke="#1f1f1f" stroke-width="4"/>
<text x="100" y="21116" font-size="30" fill="#111111" font-family="PingFang SC, Heiti SC, sans-serif"><tspan x="100" dy="0">P021  system_reveal</tspan></text>
<text x="100" y="21166" font-size="26" fill="#333333" font-family="PingFang SC, Heiti SC, sans-serif"><tspan x="100" dy="0">姜月初眼前的世界暗下，一幅古朴绘卷以墨色和金光展开；系统文字不烘焙进原图，仅预留低细节金光区供后期嵌字。</tspan></text>
<text x="100" y="21948" font-size="24" fill="#5b2b20" font-family="PingFang SC, Heiti SC, sans-serif"><tspan x="100" dy="0">旁白：百妖谱……斩杀生物，可得道行。以妖血为墨，可夺其神通。</tspan></text>
<rect x="120" y="21116" width="430" height="122" rx="28" fill="none" stroke="#3d72b4" stroke-width="3" stroke-dasharray="10 8"/>
<text x="136" y="21150" font-size="20" fill="#3d72b4" font-family="PingFang SC, Heiti SC, sans-serif"><tspan x="136" dy="0">B021N1</tspan><tspan x="136" dy="27">narration</tspan></text>
<rect x="126" y="22136" width="1188" height="920" rx="8" fill="#e5e0d8" stroke="#1f1f1f" stroke-width="4"/>
<text x="154" y="22184" font-size="30" fill="#111111" font-family="PingFang SC, Heiti SC, sans-serif"><tspan x="154" dy="0">P022  rule_problem</tspan></text>
<text x="154" y="22234" font-size="26" fill="#333333" font-family="PingFang SC, Heiti SC, sans-serif"><tspan x="154" dy="0">姜月初的手在金光前收紧，她看向远处不死虎妖，凡人身躯与巨妖形成无法跨越的比例差。</tspan></text>
<text x="154" y="22896" font-size="24" fill="#5b2b20" font-family="PingFang SC, Heiti SC, sans-serif"><tspan x="154" dy="0">旁白：可我一个凡人，要去杀这头妖？</tspan></text>
<rect x="174" y="22184" width="430" height="88" rx="28" fill="none" stroke="#3d72b4" stroke-width="3" stroke-dasharray="10 8"/>
<text x="190" y="22218" font-size="20" fill="#3d72b4" font-family="PingFang SC, Heiti SC, sans-serif"><tspan x="190" dy="0">B022N1</tspan><tspan x="190" dy="27">narration</tspan></text>
<rect x="126" y="23084" width="1188" height="920" rx="8" fill="#eee7dc" stroke="#1f1f1f" stroke-width="4"/>
<text x="154" y="23132" font-size="30" fill="#111111" font-family="PingFang SC, Heiti SC, sans-serif"><tspan x="154" dy="0">P023  weapon_choice</tspan></text>
<text x="154" y="23182" font-size="26" fill="#333333" font-family="PingFang SC, Heiti SC, sans-serif"><tspan x="154" dy="0">姜月初俯身捡起裴长青脱手的横刀，刀柄余温与血污粘住手心；裴长青在地上重新睁眼。</tspan></text>
<text x="154" y="23844" font-size="24" fill="#5b2b20" font-family="PingFang SC, Heiti SC, sans-serif"><tspan x="154" dy="0">旁白：斩杀生物……</tspan></text>
<rect x="174" y="23132" width="430" height="88" rx="28" fill="none" stroke="#3d72b4" stroke-width="3" stroke-dasharray="10 8"/>
<text x="190" y="23166" font-size="20" fill="#3d72b4" font-family="PingFang SC, Heiti SC, sans-serif"><tspan x="190" dy="0">B023N1</tspan><tspan x="190" dy="27">narration</tspan></text>
<rect x="126" y="24032" width="1188" height="920" rx="8" fill="#e5e0d8" stroke="#1f1f1f" stroke-width="4"/>
<text x="154" y="24080" font-size="30" fill="#111111" font-family="PingFang SC, Heiti SC, sans-serif"><tspan x="154" dy="0">P024  misdirection</tspan></text>
<text x="154" y="24130" font-size="26" fill="#333333" font-family="PingFang SC, Heiti SC, sans-serif"><tspan x="154" dy="0">从裴长青低角度看，姜月初持刀背对他，似乎要走向虎妖；虎妖在远处饶有兴致地笑。</tspan></text>
<text x="154" y="24792" font-size="24" fill="#5b2b20" font-family="PingFang SC, Heiti SC, sans-serif"><tspan x="154" dy="0">旁白：这女子倒有几分勇气。可惜…… |</tspan><tspan x="154" dy="32">MON_TIGER_SHANSHEN：蝼蚁尚且贪生，你莫不是还想……</tspan></text>
<rect x="174" y="24080" width="430" height="88" rx="28" fill="none" stroke="#3d72b4" stroke-width="3" stroke-dasharray="10 8"/>
<text x="190" y="24114" font-size="20" fill="#3d72b4" font-family="PingFang SC, Heiti SC, sans-serif"><tspan x="190" dy="0">B024N1</tspan><tspan x="190" dy="27">narration</tspan></text>
<rect x="652" y="24080" width="430" height="88" rx="28" fill="none" stroke="#3d72b4" stroke-width="3" stroke-dasharray="10 8"/>
<text x="668" y="24114" font-size="20" fill="#3d72b4" font-family="PingFang SC, Heiti SC, sans-serif"><tspan x="668" dy="0">B024D2</tspan><tspan x="668" dy="27">dialogue</tspan></text>
<rect x="0" y="25060" width="1440" height="4404" fill="#fbfaf7" stroke="#d4c8b4" stroke-width="2"/>
<text x="36" y="25104" font-size="28" fill="#7a5a20" font-family="PingFang SC, Heiti SC, sans-serif"><tspan x="36" dy="0">SCROLL_005</tspan></text>
<rect x="126" y="25088" width="1188" height="920" rx="8" fill="#eee7dc" stroke="#1f1f1f" stroke-width="4"/>
<text x="154" y="25136" font-size="30" fill="#111111" font-family="PingFang SC, Heiti SC, sans-serif"><tspan x="154" dy="0">P025  internal_turn</tspan></text>
<text x="154" y="25186" font-size="26" fill="#333333" font-family="PingFang SC, Heiti SC, sans-serif"><tspan x="154" dy="0">姜月初低下头，黑发遮住大半脸，双手握刀剧烈颤抖；她的视线没有看虎妖，而是慢慢落向脚边。</tspan></text>
<text x="154" y="25848" font-size="24" fill="#5b2b20" font-family="PingFang SC, Heiti SC, sans-serif"><tspan x="154" dy="0">旁白：斩杀生物，获得道行。</tspan></text>
<rect x="174" y="25136" width="430" height="88" rx="28" fill="none" stroke="#3d72b4" stroke-width="3" stroke-dasharray="10 8"/>
<text x="190" y="25170" font-size="20" fill="#3d72b4" font-family="PingFang SC, Heiti SC, sans-serif"><tspan x="190" dy="0">B025N1</tspan><tspan x="190" dy="27">narration</tspan></text>
<rect x="72" y="26036" width="1296" height="1197" rx="8" fill="#e5e0d8" stroke="#1f1f1f" stroke-width="4"/>
<text x="100" y="26084" font-size="30" fill="#111111" font-family="PingFang SC, Heiti SC, sans-serif"><tspan x="100" dy="0">P026  horrible_solution</tspan></text>
<text x="100" y="26134" font-size="26" fill="#333333" font-family="PingFang SC, Heiti SC, sans-serif"><tspan x="100" dy="0">主观俯视：横刀刀尖和裴长青起伏微弱的胸口处在同一直线，远处虎妖反而被景深虚化。</tspan></text>
<text x="100" y="27073" font-size="24" fill="#5b2b20" font-family="PingFang SC, Heiti SC, sans-serif"><tspan x="100" dy="0">旁白：这荒野上，除了那头杀不死的妖……唯一还活着的生物，就在我脚边。</tspan></text>
<rect x="120" y="26084" width="430" height="122" rx="28" fill="none" stroke="#3d72b4" stroke-width="3" stroke-dasharray="10 8"/>
<text x="136" y="26118" font-size="20" fill="#3d72b4" font-family="PingFang SC, Heiti SC, sans-serif"><tspan x="136" dy="0">B026N1</tspan><tspan x="136" dy="27">narration</tspan></text>
<rect x="126" y="27261" width="1188" height="960" rx="8" fill="#eee7dc" stroke="#1f1f1f" stroke-width="4"/>
<text x="154" y="27309" font-size="30" fill="#111111" font-family="PingFang SC, Heiti SC, sans-serif"><tspan x="154" dy="0">P027  apology</tspan></text>
<text x="154" y="27359" font-size="26" fill="#333333" font-family="PingFang SC, Heiti SC, sans-serif"><tspan x="154" dy="0">姜月初半跪到裴长青身侧，脸藏在头发阴影中；裴长青困惑地抬眼看她。</tspan></text>
<text x="154" y="28061" font-size="24" fill="#5b2b20" font-family="PingFang SC, Heiti SC, sans-serif"><tspan x="154" dy="0">CHAR_JIANG_YUECHU：抱歉…… |</tspan><tspan x="154" dy="32">CHAR_PEI_CHANGQING：什么……</tspan></text>
<rect x="174" y="27309" width="430" height="88" rx="28" fill="none" stroke="#3d72b4" stroke-width="3" stroke-dasharray="10 8"/>
<text x="190" y="27343" font-size="20" fill="#3d72b4" font-family="PingFang SC, Heiti SC, sans-serif"><tspan x="190" dy="0">B027D1</tspan><tspan x="190" dy="27">dialogue</tspan></text>
<rect x="652" y="27309" width="430" height="88" rx="28" fill="none" stroke="#3d72b4" stroke-width="3" stroke-dasharray="10 8"/>
<text x="668" y="27343" font-size="20" fill="#3d72b4" font-family="PingFang SC, Heiti SC, sans-serif"><tspan x="668" dy="0">B027D2</tspan><tspan x="668" dy="27">dialogue</tspan></text>
<rect x="72" y="28249" width="1296" height="1199" rx="8" fill="#e5e0d8" stroke="#1f1f1f" stroke-width="4"/>
<text x="100" y="28297" font-size="30" fill="#111111" font-family="PingFang SC, Heiti SC, sans-serif"><tspan x="100" dy="0">P028  cliffhanger</tspan></text>
<text x="100" y="28347" font-size="26" fill="#333333" font-family="PingFang SC, Heiti SC, sans-serif"><tspan x="100" dy="0">超近景冲击格：姜月初双手将横刀刺入裴长青胸口，接触点被深红血色与飞散墨点遮挡，不展示露骨伤口；裴长青眼中只剩错愕。</tspan></text>
<text x="100" y="29288" font-size="24" fill="#5b2b20" font-family="PingFang SC, Heiti SC, sans-serif"><tspan x="100" dy="0">SFX：噗嗤——</tspan></text>
<rect x="540" y="29250" width="360" height="150" rx="28" fill="none" stroke="#b4433d" stroke-width="3" stroke-dasharray="10 8"/>
<text x="556" y="29284" font-size="20" fill="#b4433d" font-family="PingFang SC, Heiti SC, sans-serif"><tspan x="556" dy="0">B028S1</tspan><tspan x="556" dy="27">sfx</tspan></text>
</svg>
