<svg xmlns="http://www.w3.org/2000/svg" width="1012" height="944" viewBox="0 0 1012 944">
<rect width="100%" height="100%" fill="#f2efe7"/>
<style>text{font-family:-apple-system,BlinkMacSystemFont,Arial,sans-serif;font-size:11px;fill:#222}.pid{font-weight:700}.note{font-size:9px;fill:#555}</style>
<rect x="28" y="28" width="300" height="430" fill="#fffdf7" stroke="#222" stroke-width="2"/>
<text x="38" y="46">PAGE_001 left</text>
<rect x="46" y="62" width="264" height="117" fill="#ece8dc" stroke="#333" stroke-width="1.5"/>
<text class="pid" x="51" y="77">P001</text>
<text class="note" x="51" y="92">大留白；不可画成具体影视版厅堂；旁白后期嵌字。</text>
<rect x="67" y="184" width="220" height="39" fill="#f7f7f7" stroke="#333" stroke-width="1.5"/>
<text class="pid" x="72" y="199">P002</text>
<text class="note" x="72" y="214">倒影不出现演员脸；文字后期嵌字。</text>
<rect x="56" y="228" width="242" height="78" fill="#f7f7f7" stroke="#333" stroke-width="1.5"/>
<text class="pid" x="61" y="243">P003</text>
<text class="note" x="61" y="258">神话宏景；禁仙侠宫殿、霓虹法阵、清晰女娲脸。</text>
<rect x="46" y="312" width="264" height="117" fill="#ece8dc" stroke="#333" stroke-width="1.5"/>
<text class="pid" x="51" y="327">P004</text>
<text class="note" x="51" y="342">顽石不长五官；天然裂纹是后续宝玉形态继承锚。</text>
<text class="note" x="38" y="448">hook: P004 page_turn_reveal</text>
<rect x="356" y="28" width="300" height="430" fill="#fffdf7" stroke="#222" stroke-width="2"/>
<text x="366" y="46">PAGE_002 right</text>
<rect x="395" y="62" width="220" height="44" fill="#f7f7f7" stroke="#333" stroke-width="1.5"/>
<text class="pid" x="400" y="77">P005</text>
<text class="note" x="400" y="92">画外对白后期嵌字；不画眼睛和嘴。</text>
<rect x="384" y="111" width="242" height="88" fill="#f7f7f7" stroke="#333" stroke-width="1.5"/>
<text class="pid" x="389" y="126">P006</text>
<text class="note" x="389" y="141">人物不看镜头；身段有戏曲节制但不复制具体戏服。</text>
<rect x="374" y="204" width="264" height="132" fill="#ece8dc" stroke="#333" stroke-width="1.5"/>
<text class="pid" x="379" y="219">P007</text>
<text class="note" x="379" y="234">不复制大观园剧照；只保留抽象社会诱惑。</text>
<rect x="384" y="341" width="242" height="88" fill="#f7f7f7" stroke="#333" stroke-width="1.5"/>
<text class="pid" x="389" y="356">P008</text>
<text class="note" x="389" y="371">声音来自石内；不画嘴和眼；和尚手部解剖严格。</text>
<text class="note" x="366" y="448">hook: P007 temptation_reveal</text>
<rect x="684" y="28" width="300" height="430" fill="#fffdf7" stroke="#222" stroke-width="2"/>
<text x="694" y="46">PAGE_003 left</text>
<rect x="712" y="62" width="242" height="78" fill="#f7f7f7" stroke="#333" stroke-width="1.5"/>
<text class="pid" x="717" y="77">P009</text>
<text class="note" x="717" y="92">气泡预留在两人外侧上方，不挡脸和手。</text>
<rect x="723" y="145" width="220" height="39" fill="#f7f7f7" stroke="#333" stroke-width="1.5"/>
<text class="pid" x="728" y="160">P010</text>
<text class="note" x="728" y="175">不画卡通石脸；影子必须符合上一格两人站位。</text>
<rect x="702" y="189" width="264" height="117" fill="#ece8dc" stroke="#333" stroke-width="1.5"/>
<text class="pid" x="707" y="204">P011</text>
<text class="note" x="707" y="219">动作接触点必须正确；禁多手、断指、光圈 UI。</text>
<rect x="702" y="312" width="264" height="117" fill="#ece8dc" stroke="#333" stroke-width="1.5"/>
<text class="pid" x="707" y="327">P012</text>
<text class="note" x="707" y="342">原画无‘通灵宝玉’文字；手和玉比例准确。</text>
<text class="note" x="694" y="448">hook: P012 page_turn_reveal</text>
<rect x="28" y="486" width="300" height="430" fill="#fffdf7" stroke="#222" stroke-width="2"/>
<text x="38" y="504">PAGE_004 right</text>
<rect x="46" y="520" width="264" height="96" fill="#ece8dc" stroke="#333" stroke-width="1.5"/>
<text class="pid" x="51" y="535">P013</text>
<text class="note" x="51" y="550">场景大图须成为后续 LOC 锚；禁西式仙境。</text>
<rect x="56" y="621" width="242" height="64" fill="#f7f7f7" stroke="#333" stroke-width="1.5"/>
<text class="pid" x="61" y="636">P014</text>
<text class="note" x="61" y="651">神瑛不看镜头；手、盏、甘露路径严格。</text>
<rect x="46" y="690" width="264" height="96" fill="#ece8dc" stroke="#333" stroke-width="1.5"/>
<text class="pid" x="51" y="705">P015</text>
<text class="note" x="51" y="720">首次身份定妆高风险格；禁泛韩漫脸、过度裸露、仙侠光爆。</text>
<rect x="46" y="791" width="264" height="96" fill="#ece8dc" stroke="#333" stroke-width="1.5"/>
<text class="pid" x="51" y="806">P016</text>
<text class="note" x="51" y="821">不是偶像剧凝视；泪与背影构成命运距离。</text>
<text class="note" x="38" y="906">hook: P015 identity_reveal</text>
<rect x="356" y="486" width="300" height="430" fill="#fffdf7" stroke="#222" stroke-width="2"/>
<text x="366" y="504">PAGE_005 left</text>
<rect x="384" y="520" width="242" height="70" fill="#f7f7f7" stroke="#333" stroke-width="1.5"/>
<text class="pid" x="389" y="535">P017</text>
<text class="note" x="389" y="550">现实层第一次出现，材质与光线要清楚；无现代家具。</text>
<rect x="384" y="595" width="242" height="70" fill="#f7f7f7" stroke="#333" stroke-width="1.5"/>
<text class="pid" x="389" y="610">P018</text>
<text class="note" x="389" y="625">三人同格高风险；站位、眼线、托玉接触点必须按合同。</text>
<rect x="374" y="671" width="264" height="105" fill="#ece8dc" stroke="#333" stroke-width="1.5"/>
<text class="pid" x="379" y="686">P019</text>
<text class="note" x="379" y="701">高风险手部交接；原画无玉字和气泡。</text>
<rect x="374" y="782" width="264" height="105" fill="#ece8dc" stroke="#333" stroke-width="1.5"/>
<text class="pid" x="379" y="797">P020</text>
<text class="note" x="379" y="812">无字牌坊；标题/对联后期嵌字；翻页雷醒。</text>
<text class="note" x="366" y="906">hook: P020 threshold_reveal</text>
<rect x="684" y="486" width="300" height="430" fill="#fffdf7" stroke="#222" stroke-width="2"/>
<text x="694" y="504">PAGE_006 right</text>
<rect x="702" y="520" width="264" height="96" fill="#ece8dc" stroke="#333" stroke-width="1.5"/>
<text class="pid" x="707" y="535">P021</text>
<text class="note" x="707" y="550">用版面白缝兼作雷电；不可丢手或把脚画成手。</text>
<rect x="712" y="621" width="242" height="64" fill="#f7f7f7" stroke="#333" stroke-width="1.5"/>
<text class="pid" x="717" y="636">P022</text>
<text class="note" x="717" y="651">父女接抱解剖高风险；英莲首次定妆必须可继承未来香菱。</text>
<rect x="702" y="690" width="264" height="96" fill="#ece8dc" stroke="#333" stroke-width="1.5"/>
<text class="pid" x="707" y="705">P023</text>
<text class="note" x="707" y="720">四人同格高风险；和尚赤足、道士跛足必须是脚，不能画成手。</text>
<rect x="702" y="791" width="264" height="96" fill="#ece8dc" stroke="#333" stroke-width="1.5"/>
<text class="pid" x="707" y="806">P024</text>
<text class="note" x="707" y="821">页末留黑；火星只一粒；旁白后期嵌字。</text>
<text class="note" x="694" y="906">hook: P024 cliffhanger</text>
</svg>
