<svg xmlns="http://www.w3.org/2000/svg" width="1012" height="486" viewBox="0 0 1012 486">
<rect width="100%" height="100%" fill="#f2efe7"/>
<style>text{font-family:-apple-system,BlinkMacSystemFont,Arial,sans-serif;font-size:11px;fill:#222}.pid{font-weight:700}.note{font-size:9px;fill:#555}</style>
<rect x="28" y="28" width="300" height="430" fill="#fffdf7" stroke="#222" stroke-width="2"/>
<text x="38" y="46">SCROLL_001 scroll</text>
<rect x="46" y="62" width="264" height="72" fill="#ece8dc" stroke="#333" stroke-width="1.5"/>
<text class="pid" x="51" y="77">P001</text>
<text class="note" x="51" y="92">承接第1话结尾的大格；不做内脏特写，用衣料、黑影和血点表现刺入…</text>
<rect x="57" y="140" width="242" height="48" fill="#f7f7f7" stroke="#333" stroke-width="1.5"/>
<text class="pid" x="62" y="155">P002</text>
<text class="note" x="62" y="170">窄竖格；姜月初不要邪笑，脸上是现代人第一次杀人的崩溃感；裴长青…</text>
<rect x="57" y="194" width="242" height="48" fill="#f7f7f7" stroke="#333" stroke-width="1.5"/>
<text class="pid" x="62" y="209">P003</text>
<text class="note" x="62" y="224">低机位压迫；虎妖上半身占画面大部，姜月初在前景偏小；对白留在虎…</text>
<rect x="57" y="248" width="242" height="48" fill="#f7f7f7" stroke="#333" stroke-width="1.5"/>
<text class="pid" x="62" y="263">P004</text>
<text class="note" x="62" y="278">系统提示区预留足够空白；面板图只画卷轴和金字光点，不生成可读文…</text>
<rect x="46" y="302" width="264" height="72" fill="#ece8dc" stroke="#333" stroke-width="1.5"/>
<text class="pid" x="51" y="317">P005</text>
<text class="note" x="51" y="332">动作要清楚但克制血腥；姜月初脸继承 CHAR_JYC，表情从崩…</text>
<rect x="57" y="381" width="242" height="48" fill="#f7f7f7" stroke="#333" stroke-width="1.5"/>
<text class="pid" x="62" y="396">P006</text>
<text class="note" x="62" y="411">重点竖向动作大格；姜月初仍是血污囚服，不突然换装；刀和身体形成…</text>
<text class="note" x="38" y="448">hook: P001 consequence_hook</text>
<rect x="356" y="28" width="300" height="430" fill="#fffdf7" stroke="#222" stroke-width="2"/>
<text x="366" y="46">SCROLL_002 scroll</text>
<rect x="374" y="62" width="264" height="59" fill="#ece8dc" stroke="#333" stroke-width="1.5"/>
<text class="pid" x="379" y="77">P007</text>
<text class="note" x="379" y="92">虎爪压迫占上半画面，姜月初是下方小身影；注意虎妖利爪结构，不画…</text>
<rect x="374" y="127" width="264" height="59" fill="#ece8dc" stroke="#333" stroke-width="1.5"/>
<text class="pid" x="379" y="142">P008</text>
<text class="note" x="379" y="157">高速交错格；可用黑白速度线和一点血色，不要画成乱糊；姜月初动作…</text>
<rect x="374" y="193" width="264" height="59" fill="#ece8dc" stroke="#333" stroke-width="1.5"/>
<text class="pid" x="379" y="208">P009</text>
<text class="note" x="379" y="223">重点大格；前景姜月初七窍渗血要克制，重点是脱力和死寂；虎头滚落…</text>
<rect x="374" y="258" width="264" height="59" fill="#ece8dc" stroke="#333" stroke-width="1.5"/>
<text class="pid" x="379" y="273">P010</text>
<text class="note" x="379" y="288">低角度贴地视角；脸上泥土、血污和疲惫明显，但五官仍继承 CHA…</text>
<rect x="385" y="324" width="242" height="39" fill="#f7f7f7" stroke="#333" stroke-width="1.5"/>
<text class="pid" x="390" y="339">P011</text>
<text class="note" x="390" y="354">近景；嘴唇和眼神清楚，身体脱力；不要出现现代 UI 面板，百妖…</text>
<rect x="374" y="369" width="264" height="60" fill="#ece8dc" stroke="#333" stroke-width="1.5"/>
<text class="pid" x="379" y="384">P012</text>
<text class="note" x="379" y="399">系统奇观大格；卷轴、墨虎、金光、幽红虎瞳是重点；不要画可读系统…</text>
<text class="note" x="366" y="448">hook: P009 kill_reveal</text>
<rect x="684" y="28" width="300" height="430" fill="#fffdf7" stroke="#222" stroke-width="2"/>
<text x="694" y="46">SCROLL_003 scroll</text>
<rect x="702" y="62" width="264" height="180" fill="#ece8dc" stroke="#333" stroke-width="1.5"/>
<text class="pid" x="707" y="77">P013</text>
<text class="note" x="707" y="92">人物恢复力量但不能美化成华服；仍是同一囚服、血污、黑长发；横刀…</text>
<rect x="702" y="248" width="264" height="181" fill="#ece8dc" stroke="#333" stroke-width="1.5"/>
<text class="pid" x="707" y="263">P014</text>
<text class="note" x="707" y="278">结尾留白大格；姜月初脸部悲伤克制，不要哭成夸张表情；裴长青死亡…</text>
<text class="note" x="694" y="448">hook: P014 quiet_cliffhanger</text>
</svg>
