<svg xmlns="http://www.w3.org/2000/svg" viewBox="0 0 24 24" fill="none" stroke="currentColor" stroke-width="1.8" stroke-linecap="round" stroke-linejoin="round">
  <path d="M4 7.5h16v11a1.5 1.5 0 0 1-1.5 1.5h-13A1.5 1.5 0 0 1 4 18.5v-11Z"/>
  <path d="M4 7.5 5.4 3.8A1.5 1.5 0 0 1 6.8 3h11.7A1.5 1.5 0 0 1 20 4.5v3"/>
  <path d="M7 3.2 9 7.5"/>
  <path d="M12 3.2 14 7.5"/>
  <path d="M17 3.2 19 7.5"/>
  <path d="M8 11.5h4.2"/>
  <path d="M8 15.5h3"/>
  <path d="M15 11.2 18.2 13 15 14.8Z" fill="currentColor" stroke="none"/>
</svg>
